<svg width="126" height="32" viewBox="0 0 126 32" fill="none" xmlns="http://www.w3.org/2000/svg">
<g clip-path="url(#clip0)">
<path d="M121 0H31V32H121C123.761 32 126 29.7614 126 27V5C126 2.23858 123.761 0 121 0Z" fill="#0F1418"/>
<path d="M31 0H5C2.23858 0 0 2.23858 0 5V27C0 29.7614 2.23858 32 5 32H31V0Z" fill="#035BDA"/>
<path d="M31 6H12V25H31V6Z" fill="url(#paint0_linear)"/>
<path d="M31 24.6208L10.4785 13.0092H0V27.2319C0 29.9933 2.23858 32.2319 5 32.2319H31V24.6208Z" fill="url(#paint1_linear)"/>
<path d="M0 24.4629L31 6.9214V0H5C2.23858 0 0 2.23858 0 5V24.4629Z" fill="url(#paint2_linear)"/>
<path d="M6.61043 15.8893C6.55886 7.31786 18.0394 3.53307 22.9903 11.4974L19.1913 13.6957C16.898 9.90261 11.2038 11.2589 10.9994 15.8892C11.0608 20.1567 16.6575 22.139 19.1916 18.0825L22.9905 20.2807C18.6274 27.8551 6.83049 25.13 6.61043 15.8893Z" fill="white"/>
<path d="M21.0903 13.4004H21.8138L21.3195 18.1755H20.5824L21.0903 13.4004Z" fill="white"/>
<path d="M22.6401 13.4004H23.3636L22.8693 18.1755H22.1322L22.6401 13.4004Z" fill="white"/>
<path d="M23.8975 14.5344H20.28V15.2332H23.8975V14.5344Z" fill="white"/>
<path d="M23.6949 16.2366H20.0774V16.9353H23.6949V16.2366Z" fill="white"/>
<path d="M57.2085 22H54.6304L53.8833 19.6636H50.148L49.4082 22H46.8448L50.668 11.4971H53.4732L57.2085 22ZM53.3413 17.8472L52.2134 14.3169C52.1304 14.0532 52.0718 13.7383 52.0376 13.3721H51.979C51.9546 13.6797 51.8936 13.9849 51.7959 14.2876L50.6534 17.8472H53.3413ZM58.7435 21.5972V19.2534C59.1683 19.6099 59.6297 19.8784 60.1278 20.0591C60.6258 20.2349 61.1288 20.3228 61.6366 20.3228C61.9344 20.3228 62.1932 20.2959 62.4129 20.2422C62.6376 20.1885 62.8231 20.1152 62.9696 20.0225C63.121 19.9248 63.2333 19.8125 63.3065 19.6855C63.3797 19.5537 63.4164 19.4121 63.4164 19.2607C63.4164 19.0557 63.3578 18.8726 63.2406 18.7114C63.1234 18.5503 62.9623 18.4014 62.7572 18.2646C62.557 18.1279 62.3177 17.9961 62.0394 17.8691C61.7611 17.7422 61.4608 17.6128 61.1385 17.481C60.3182 17.1392 59.7054 16.7217 59.3002 16.2285C58.8998 15.7354 58.6996 15.1396 58.6996 14.4414C58.6996 13.8945 58.8094 13.4258 59.0292 13.0352C59.2489 12.6396 59.5467 12.3149 59.9227 12.061C60.3036 11.8071 60.743 11.6216 61.2411 11.5044C61.7391 11.3823 62.2665 11.3213 62.8231 11.3213C63.37 11.3213 63.8534 11.3555 64.2733 11.4238C64.6981 11.4873 65.0887 11.5874 65.4452 11.7241V13.9141C65.2694 13.792 65.0765 13.6846 64.8666 13.5918C64.6615 13.499 64.4491 13.4233 64.2294 13.3647C64.0096 13.3013 63.7899 13.2549 63.5702 13.2256C63.3553 13.1963 63.1503 13.1816 62.9549 13.1816C62.6864 13.1816 62.4422 13.2085 62.2225 13.2622C62.0028 13.311 61.8172 13.3818 61.6659 13.4746C61.5145 13.5674 61.3973 13.6797 61.3143 13.8115C61.2313 13.9385 61.1898 14.0825 61.1898 14.2437C61.1898 14.4194 61.2362 14.5781 61.329 14.7197C61.4217 14.8564 61.5536 14.9883 61.7245 15.1152C61.8954 15.2373 62.1029 15.3594 62.347 15.4814C62.5912 15.5986 62.8671 15.7207 63.1747 15.8477C63.5946 16.0234 63.9706 16.2114 64.3026 16.4116C64.6395 16.6069 64.9276 16.8291 65.1669 17.0781C65.4061 17.3271 65.5892 17.6128 65.7162 17.9351C65.8431 18.2524 65.9066 18.6235 65.9066 19.0483C65.9066 19.6343 65.7943 20.1274 65.5697 20.5278C65.35 20.9233 65.0497 21.2456 64.6688 21.4946C64.2879 21.7388 63.8436 21.9146 63.3358 22.022C62.8329 22.1294 62.3006 22.1831 61.7391 22.1831C61.1629 22.1831 60.6136 22.1343 60.0912 22.0366C59.5736 21.939 59.1244 21.7925 58.7435 21.5972ZM70.7082 18.3818V22H68.3425V11.4971H72.0485C74.695 11.4971 76.0182 12.6128 76.0182 14.8442C76.0182 15.8989 75.6374 16.7534 74.8757 17.4077C74.1188 18.0571 73.1056 18.3818 71.8361 18.3818H70.7082ZM70.7082 13.3135V16.5874H71.6384C72.8981 16.5874 73.528 16.0356 73.528 14.9321C73.528 13.853 72.8981 13.3135 71.6384 13.3135H70.7082ZM76.5498 22.1831C76.1689 22.1831 75.8516 22.0659 75.5977 21.8315C75.3438 21.5972 75.2168 21.3091 75.2168 20.9673C75.2168 20.6157 75.3462 20.3276 75.605 20.103C75.8687 19.8784 76.1958 19.7661 76.5864 19.7661C76.9819 19.7661 77.3042 19.8809 77.5532 20.1104C77.8071 20.335 77.9341 20.6206 77.9341 20.9673C77.9341 21.3237 77.8047 21.6167 77.5459 21.8462C77.292 22.0708 76.96 22.1831 76.5498 22.1831ZM89.7083 22H87.3206L82.992 15.4009C82.7381 15.0151 82.5623 14.7246 82.4647 14.5293H82.4354C82.4744 14.9004 82.494 15.4668 82.494 16.2285V22H80.2601V11.4971H82.8089L86.9764 17.8911C87.1668 18.1792 87.3426 18.4648 87.5037 18.748H87.533C87.494 18.5039 87.4744 18.0229 87.4744 17.3052V11.4971H89.7083V22ZM99.1168 22H92.818V11.4971H98.8751V13.4233H95.1837V15.7598H98.6188V17.6787H95.1837V20.0811H99.1168V22ZM109.016 13.4233H106.02V22H103.647V13.4233H100.666V11.4971H109.016V13.4233Z" fill="white"/>
<path d="M121 0H5C2.23858 0 0 2.23858 0 5V27C0 29.7614 2.23858 32 5 32H121C123.761 32 126 29.7614 126 27V5C126 2.23858 123.761 0 121 0Z" fill="url(#paint3_linear)"/>
</g>
<defs>
<linearGradient id="paint0_linear" x1="18.5061" y1="11.7525" x2="27.4376" y2="23.442" gradientUnits="userSpaceOnUse">
<stop stop-color="#3B009B"/>
<stop offset="1" stop-color="#390086"/>
</linearGradient>
<linearGradient id="paint1_linear" x1="8.65672" y1="19.8613" x2="16.625" y2="30.2911" gradientUnits="userSpaceOnUse">
<stop stop-color="#340084"/>
<stop offset="1" stop-color="#290064"/>
</linearGradient>
<linearGradient id="paint2_linear" x1="9.0029" y1="4.09966" x2="17.1582" y2="14.7742" gradientUnits="userSpaceOnUse">
<stop stop-color="#A47EDE"/>
<stop offset="1" stop-color="#9866D3"/>
</linearGradient>
<linearGradient id="paint3_linear" x1="0" y1="0" x2="0" y2="32" gradientUnits="userSpaceOnUse">
<stop stop-color="#BBBBBB" stop-opacity="0.1"/>
<stop offset="1" stop-opacity="0.1"/>
</linearGradient>
<clipPath id="clip0">
<rect width="126" height="32" fill="white"/>
</clipPath>
</defs>
</svg>
