<svg width="86" height="32" viewBox="0 0 86 32" fill="none" xmlns="http://www.w3.org/2000/svg">
<path d="M81 0H31V32H81C83.7614 32 86 29.7614 86 27V5C86 2.23858 83.7614 0 81 0Z" fill="#0F1418"/>
<path d="M31 0H5C2.23858 0 0 2.23858 0 5V27C0 29.7614 2.23858 32 5 32H31V0Z" fill="#366E9C"/>
<path d="M42.9569 21.6265C42.1903 21.9976 41.1893 22.1831 39.954 22.1831C38.3426 22.1831 37.0755 21.7095 36.1527 20.7622C35.2298 19.8149 34.7684 18.5527 34.7684 16.9756C34.7684 15.2959 35.286 13.9336 36.3212 12.8887C37.3612 11.8438 38.7088 11.3213 40.3641 11.3213C41.3895 11.3213 42.2538 11.4507 42.9569 11.7095V13.9873C42.2538 13.5674 41.453 13.3574 40.5546 13.3574C39.5682 13.3574 38.7723 13.6675 38.1669 14.2876C37.5614 14.9077 37.2587 15.7476 37.2587 16.8071C37.2587 17.8228 37.5443 18.6333 38.1156 19.2388C38.6869 19.8394 39.4559 20.1396 40.4227 20.1396C41.3456 20.1396 42.1903 19.915 42.9569 19.4658V21.6265ZM52.9074 18.4478H50.0876V21.2676H48.6081V18.4478H45.7736V16.9609H48.6081V14.1265H50.0876V16.9609H52.9074V18.4478ZM63.6929 18.4478H60.873V21.2676H59.3936V18.4478H56.5591V16.9609H59.3936V14.1265H60.873V16.9609H63.6929V18.4478ZM71.6951 11.2627V22H69.388V13.8701C69.2611 13.9824 69.1097 14.0898 68.9339 14.1924C68.763 14.29 68.5799 14.3804 68.3846 14.4634C68.1893 14.5415 67.9866 14.6099 67.7767 14.6685C67.5667 14.7222 67.3592 14.7612 67.1541 14.7856V12.8374C67.7547 12.6616 68.3211 12.437 68.8533 12.1636C69.3856 11.8901 69.8665 11.5898 70.2962 11.2627H71.6951ZM82.422 12.8301C81.9533 13.6748 81.5333 14.4683 81.1622 15.2104C80.7912 15.9478 80.464 16.6777 80.1808 17.4004C79.8976 18.1182 79.6559 18.8506 79.4557 19.5977C79.2555 20.3398 79.0919 21.1406 78.965 22H76.548C76.6847 21.1846 76.8654 20.3984 77.09 19.6416C77.3146 18.8848 77.5734 18.1523 77.8663 17.4443C78.1642 16.7314 78.4913 16.0381 78.8478 15.3643C79.2091 14.6904 79.59 14.0312 79.9904 13.3867H75.1124V11.4971H82.422V12.8301Z" fill="white"/>
<path d="M81 0H5C2.23858 0 0 2.23858 0 5V27C0 29.7614 2.23858 32 5 32H81C83.7614 32 86 29.7614 86 27V5C86 2.23858 83.7614 0 81 0Z" fill="url(#paint0_linear)"/>
<g clip-path="url(#clip0)">
<path d="M27.9596 9.94262C27.9594 9.48985 27.8626 9.08976 27.6667 8.74639C27.4743 8.40874 27.1862 8.12574 26.7998 7.90198C23.61 6.06288 20.417 4.22941 17.2282 2.38844C16.3685 1.89217 15.535 1.91027 14.6817 2.41365C13.412 3.16236 7.05531 6.8039 5.16109 7.90095C4.381 8.35249 4.00141 9.04355 4.00122 9.94177C4 13.6403 4.00122 17.3387 4 21.0374C4.00019 21.4802 4.09291 21.8725 4.28012 22.2107C4.47259 22.5586 4.76472 22.8494 5.16006 23.0782C7.05437 24.1753 13.4119 27.8165 14.6813 28.5654C15.535 29.0691 16.3685 29.0871 17.2285 28.5906C20.4174 26.7496 23.6105 24.9162 26.8008 23.0771C27.1962 22.8484 27.4883 22.5574 27.6808 22.2098C27.8677 21.8716 27.9606 21.4793 27.9608 21.0363C27.9608 21.0363 27.9608 13.6412 27.9596 9.94262" fill="#5C8DBC"/>
<path d="M16.0171 15.4526L4.28012 22.2098C4.47259 22.5577 4.76471 22.8485 5.16006 23.0773C7.05437 24.1744 13.4119 27.8156 14.6813 28.5645C15.535 29.0682 16.3685 29.0862 17.2285 28.5897C20.4174 26.7487 23.6105 24.9153 26.8009 23.0762C27.1962 22.8475 27.4883 22.5565 27.6808 22.2089L16.0171 15.4526" fill="#1A4674"/>
<path d="M12.5407 17.4542C13.2237 18.6464 14.5076 19.4505 15.9804 19.4505C17.4623 19.4505 18.7535 18.6362 19.433 17.4312L16.0171 15.4526L12.5407 17.4542" fill="#1A4674"/>
<path d="M30.9425 10.1962C30.9424 9.74346 30.8455 9.34337 30.6497 9L19 15.7071L30.6637 22.4634C30.8507 22.1252 30.9436 21.7329 30.9438 21.29C30.9438 21.29 30.9438 13.8949 30.9425 10.1962" fill="#1B598E"/>
<path d="M27.3182 15.9355H26.4068V16.847H25.4952V15.9355H24.5838V15.0243H25.4952V14.1129H26.4068V15.0243H27.3182V15.9355ZM23.9925 15.9355H23.0811V16.847H22.1697V15.9355H21.2582V15.0243H22.1697V14.1129H23.0811V15.0243H23.9925V15.9355Z" fill="white"/>
<path d="M19.433 17.4312C18.7535 18.6361 17.4623 19.4505 15.9804 19.4505C14.5076 19.4505 13.2237 18.6464 12.5407 17.4542C12.1976 16.8559 12.0174 16.1782 12.0182 15.4886C12.0182 13.3006 13.7922 11.5269 15.9804 11.5269C17.4438 11.5269 18.7209 12.3209 19.4072 13.5009L22.8705 11.5069C21.4939 9.13094 18.924 7.53247 15.9804 7.53247C11.5858 7.53247 8.02338 11.0946 8.02338 15.4886C8.02338 16.9302 8.40691 18.282 9.07722 19.448C10.4503 21.8365 13.0276 23.4448 15.9804 23.4448C18.9387 23.4448 21.52 21.8301 22.8911 19.4345L19.433 17.4312Z" fill="white"/>
</g>
<defs>
<linearGradient id="paint0_linear" x1="0" y1="0" x2="0" y2="32" gradientUnits="userSpaceOnUse">
<stop stop-color="#BBBBBB" stop-opacity="0.1"/>
<stop offset="1" stop-opacity="0.1"/>
</linearGradient>
<clipPath id="clip0">
<rect width="24" height="27" fill="white" transform="translate(4 2)"/>
</clipPath>
</defs>
</svg>
