<svg width="126" height="32" viewBox="0 0 126 32" fill="none" xmlns="http://www.w3.org/2000/svg">
<g clip-path="url(#clip0)">
<path d="M121 0H31V32H121C123.761 32 126 29.7614 126 27V5C126 2.23858 123.761 0 121 0Z" fill="#0F1418"/>
<path d="M31 0H5C2.23858 0 0 2.23858 0 5V27C0 29.7614 2.23858 32 5 32H31V0Z" fill="#035BDA"/>
<path d="M31 6H12V25H31V6Z" fill="url(#paint0_linear)"/>
<path d="M31 24.6208L10.4785 13.0092H0V27.2319C0 29.9933 2.23858 32.2319 5 32.2319H31V24.6208Z" fill="url(#paint1_linear)"/>
<path d="M0 24.4629L31 6.9214V0H5C2.23858 0 0 2.23858 0 5V24.4629Z" fill="url(#paint2_linear)"/>
<path d="M6.61043 15.8893C6.55886 7.31786 18.0394 3.53307 22.9903 11.4974L19.1913 13.6957C16.898 9.90261 11.2038 11.2589 10.9994 15.8892C11.0608 20.1567 16.6575 22.139 19.1916 18.0825L22.9905 20.2807C18.6274 27.8551 6.83049 25.13 6.61043 15.8893Z" fill="white"/>
<path d="M21.0903 13.4004H21.8138L21.3195 18.1755H20.5824L21.0903 13.4004Z" fill="white"/>
<path d="M22.6401 13.4004H23.3636L22.8693 18.1755H22.1322L22.6401 13.4004Z" fill="white"/>
<path d="M23.8975 14.5344H20.28V15.2332H23.8975V14.5344Z" fill="white"/>
<path d="M23.6949 16.2366H20.0774V16.9353H23.6949V16.2366Z" fill="white"/>
<path d="M43.4641 22.1831C43.0832 22.1831 42.7658 22.0659 42.5119 21.8315C42.258 21.5972 42.1311 21.3091 42.1311 20.9673C42.1311 20.6157 42.2605 20.3276 42.5193 20.103C42.7829 19.8784 43.1101 19.7661 43.5007 19.7661C43.8962 19.7661 44.2185 19.8809 44.4675 20.1104C44.7214 20.335 44.8484 20.6206 44.8484 20.9673C44.8484 21.3237 44.719 21.6167 44.4602 21.8462C44.2063 22.0708 43.8742 22.1831 43.4641 22.1831ZM56.6226 22H54.2349L49.9063 15.4009C49.6524 15.0151 49.4766 14.7246 49.3789 14.5293H49.3496C49.3887 14.9004 49.4082 15.4668 49.4082 16.2285V22H47.1744V11.4971H49.7232L53.8907 17.8911C54.0811 18.1792 54.2569 18.4648 54.418 18.748H54.4473C54.4082 18.5039 54.3887 18.0229 54.3887 17.3052V11.4971H56.6226V22ZM66.0311 22H59.7323V11.4971H65.7894V13.4233H62.098V15.7598H65.5331V17.6787H62.098V20.0811H66.0311V22ZM75.9304 13.4233H72.9347V22H70.5617V13.4233H67.5807V11.4971H75.9304V13.4233ZM89.9061 21.6265C89.1395 21.9976 88.1385 22.1831 86.9031 22.1831C85.2918 22.1831 84.0247 21.7095 83.1019 20.7622C82.179 19.8149 81.7176 18.5527 81.7176 16.9756C81.7176 15.2959 82.2352 13.9336 83.2703 12.8887C84.3104 11.8438 85.658 11.3213 87.3133 11.3213C88.3387 11.3213 89.2029 11.4507 89.9061 11.7095V13.9873C89.2029 13.5674 88.4022 13.3574 87.5037 13.3574C86.5174 13.3574 85.7215 13.6675 85.116 14.2876C84.5106 14.9077 84.2078 15.7476 84.2078 16.8071C84.2078 17.8228 84.4935 18.6333 85.0648 19.2388C85.6361 19.8394 86.4051 20.1396 87.3719 20.1396C88.2947 20.1396 89.1395 19.915 89.9061 19.4658V21.6265ZM95.528 22.1831C94.278 22.1831 93.2941 21.834 92.5763 21.1357C91.8634 20.4326 91.507 19.4805 91.507 18.2793C91.507 17.0391 91.8781 16.0698 92.6203 15.3716C93.3624 14.6685 94.3659 14.3169 95.6305 14.3169C96.8756 14.3169 97.8522 14.6685 98.5602 15.3716C99.2682 16.0698 99.6222 16.9951 99.6222 18.1475C99.6222 19.3926 99.256 20.3765 98.5236 21.0991C97.796 21.8218 96.7975 22.1831 95.528 22.1831ZM95.5866 16.0894C95.0397 16.0894 94.6149 16.2773 94.3121 16.6533C94.0094 17.0293 93.858 17.5615 93.858 18.25C93.858 19.6904 94.4391 20.4106 95.6012 20.4106C96.7096 20.4106 97.2638 19.6709 97.2638 18.1914C97.2638 16.79 96.7047 16.0894 95.5866 16.0894ZM106.196 16.5874C105.918 16.436 105.593 16.3604 105.222 16.3604C104.719 16.3604 104.326 16.5459 104.043 16.917C103.76 17.2832 103.618 17.7837 103.618 18.4185V22H101.304V14.5H103.618V15.8916H103.647C104.014 14.876 104.673 14.3682 105.625 14.3682C105.869 14.3682 106.06 14.3975 106.196 14.4561V16.5874ZM114.14 18.9092H109.247C109.325 19.998 110.012 20.5425 111.305 20.5425C112.131 20.5425 112.856 20.3472 113.481 19.9565V21.6265C112.787 21.9976 111.887 22.1831 110.778 22.1831C109.567 22.1831 108.627 21.8486 107.958 21.1797C107.289 20.5059 106.955 19.5684 106.955 18.3672C106.955 17.1221 107.316 16.1357 108.039 15.4082C108.762 14.6807 109.65 14.3169 110.705 14.3169C111.799 14.3169 112.643 14.6416 113.239 15.291C113.84 15.9404 114.14 16.8218 114.14 17.9351V18.9092ZM111.994 17.4883C111.994 16.4141 111.559 15.877 110.69 15.877C110.319 15.877 109.997 16.0308 109.723 16.3384C109.455 16.646 109.291 17.0293 109.233 17.4883H111.994Z" fill="white"/>
<path d="M121 0H5C2.23858 0 0 2.23858 0 5V27C0 29.7614 2.23858 32 5 32H121C123.761 32 126 29.7614 126 27V5C126 2.23858 123.761 0 121 0Z" fill="url(#paint3_linear)"/>
</g>
<defs>
<linearGradient id="paint0_linear" x1="18.5061" y1="11.7525" x2="27.4376" y2="23.442" gradientUnits="userSpaceOnUse">
<stop stop-color="#3B009B"/>
<stop offset="1" stop-color="#390086"/>
</linearGradient>
<linearGradient id="paint1_linear" x1="8.65672" y1="19.8613" x2="16.625" y2="30.2911" gradientUnits="userSpaceOnUse">
<stop stop-color="#340084"/>
<stop offset="1" stop-color="#290064"/>
</linearGradient>
<linearGradient id="paint2_linear" x1="9.0029" y1="4.09966" x2="17.1582" y2="14.7742" gradientUnits="userSpaceOnUse">
<stop stop-color="#A47EDE"/>
<stop offset="1" stop-color="#9866D3"/>
</linearGradient>
<linearGradient id="paint3_linear" x1="0" y1="0" x2="0" y2="32" gradientUnits="userSpaceOnUse">
<stop stop-color="#BBBBBB" stop-opacity="0.1"/>
<stop offset="1" stop-opacity="0.1"/>
</linearGradient>
<clipPath id="clip0">
<rect width="126" height="32" fill="white"/>
</clipPath>
</defs>
</svg>
